<?xml version="1.0" encoding="UTF-8"?>
<svg xmlns="http://www.w3.org/2000/svg" viewBox="0 0 2000 2000">
  <defs>
    <style>
      .uuid-f8459275-6594-42ac-8bc2-5ee84b7e4850, .uuid-8496aab8-2aec-4a83-a52d-1d8402e55a43 {
        stroke-width: 0px;
      }

      .uuid-8496aab8-2aec-4a83-a52d-1d8402e55a43 {
        fill: #eee;
      }
    </style>
  </defs>
  <g id="uuid-e64895cf-b3b3-4fd7-9b1c-920cab48d15e" data-name="back">
    <rect class="uuid-8496aab8-2aec-4a83-a52d-1d8402e55a43" width="2000" height="2000"/>
  </g>
  <g id="uuid-8ec946c1-c132-465a-ae12-eeeab2cfc8d6" data-name="color">
    <g>
      <g>
        <path class="uuid-f8459275-6594-42ac-8bc2-5ee84b7e4850" d="m897.44,784.1c1.66,0,3.34-.41,4.89-1.29,28.3-15.92,60.38-24.75,92.77-25.52,36.12-.86,71.75,7.96,103.01,25.52,4.82,2.7,10.91,1,13.62-3.82,2.71-4.81.99-10.91-3.82-13.62-34.39-19.32-73.58-29.03-113.28-28.08-35.65.85-70.95,10.56-102.1,28.08-4.81,2.71-6.52,8.81-3.81,13.62,1.84,3.26,5.23,5.1,8.72,5.1Z"/>
        <path class="uuid-f8459275-6594-42ac-8bc2-5ee84b7e4850" d="m1184.66,837.1c-3.03-4.62-9.22-5.91-13.84-2.89-4.62,3.03-5.91,9.22-2.89,13.84,21.38,32.63,32.68,70.6,32.68,109.8,0,124.23-76.02,235.24-190.6,280.56v-69.94c0-5.52-4.48-10-10-10-54.47,0-105.44-21.46-143.51-60.43-38.06-38.96-58.32-90.44-57.05-144.98.87-37.34,12.24-73.64,32.9-104.98,3.04-4.61,1.76-10.81-2.85-13.85-4.61-3.04-10.81-1.76-13.85,2.85-22.72,34.48-35.23,74.43-36.19,115.52-1.39,59.97,20.89,116.58,62.74,159.42,39.53,40.46,91.7,63.76,147.82,66.23v74.5c0,3.23,1.56,6.26,4.19,8.14,1.72,1.23,3.75,1.86,5.81,1.86,1.09,0,2.18-.18,3.24-.54,130.01-44.56,217.36-166.87,217.36-304.37,0-43.1-12.43-84.86-35.95-120.75Z"/>
        <path class="uuid-f8459275-6594-42ac-8bc2-5ee84b7e4850" d="m847.04,817.48c80.16,3.34,142.96,68.86,142.96,149.16v15.9c0,5.52,4.48,10,10,10s10-4.48,10-10v-15.9c0-81.16,63.51-146.71,144.58-149.22,5.52-.17,9.86-4.78,9.69-10.3-.17-5.52-4.76-9.86-10.3-9.69-44.09,1.37-85.33,19.57-116.12,51.27-17,17.51-29.79,38.09-37.85,60.46-7.97-22.1-20.54-42.47-37.24-59.84-30.38-31.59-71.18-50-114.88-51.82-.14,0-.28,0-.42,0-5.33,0-9.76,4.21-9.98,9.58-.23,5.52,4.06,10.18,9.57,10.41Z"/>
      </g>
      <path class="uuid-f8459275-6594-42ac-8bc2-5ee84b7e4850" d="m1125.89,902.65c-1.79,1.29-4.01,2.01-6.41,1.9-5.07-.22-9.35-4.31-9.77-9.37-.15-1.85.18-3.6.9-5.15,1.68-3.65-.95-7.81-4.96-7.49-.19.02-.38.03-.57.05-12.91,1.31-23.1,12.17-23.61,25.14-.63,15.94,12.91,28.89,29.04,27.27,12.19-1.22,22.09-11,23.45-23.18.22-1.93.22-3.82.04-5.66-.39-3.89-4.94-5.8-8.12-3.52Z"/>
      <path class="uuid-f8459275-6594-42ac-8bc2-5ee84b7e4850" d="m875.52,902.65c1.79,1.29,4.01,2.01,6.41,1.9,5.07-.22,9.35-4.31,9.77-9.37.15-1.85-.18-3.6-.9-5.15-1.68-3.65.95-7.81,4.96-7.49.19.02.38.03.57.05,12.91,1.31,23.1,12.17,23.61,25.14.63,15.94-12.91,28.89-29.04,27.27-12.19-1.22-22.09-11-23.45-23.18-.22-1.93-.22-3.82-.04-5.66.39-3.89,4.94-5.8,8.12-3.52Z"/>
    </g>
  </g>
</svg>